<?xml version="1.0" encoding="UTF-8"?> <svg xmlns="http://www.w3.org/2000/svg" width="213" height="214" viewBox="0 0 213 214" fill="none"><circle cx="106.442" cy="107.344" r="105.942" stroke="#D3222A"></circle><path d="M63.3658 94.8399C64.5807 93.3261 66.4033 92.4576 68.3665 92.4576H86.0844L95.6921 70.6065C96.2878 69.2517 97.8766 68.6326 99.2408 69.2246C100.605 69.8162 101.228 71.3945 100.632 72.7494L91.9667 92.4578H124.033L115.368 72.7494C114.772 71.3945 115.395 69.8164 116.759 69.2246C118.123 68.6326 119.712 69.2513 120.308 70.6065L129.916 92.4578H147.633C149.597 92.4578 151.419 93.3261 152.634 94.8401C153.827 96.3264 154.267 98.2371 153.842 100.083L144.38 141.132C143.719 143.998 141.166 146 138.172 146H77.8283C74.8338 146 72.281 143.998 71.6203 141.132L62.1585 100.083C61.7332 98.237 62.1732 96.3262 63.3658 94.8399ZM77.8283 140.646H138.172C138.629 140.646 139.03 140.348 139.125 139.937L148.587 98.888C148.661 98.5659 148.536 98.3235 148.419 98.177C148.309 98.0406 148.062 97.812 147.633 97.812H132.27L132.976 99.4177C133.571 100.773 132.949 102.351 131.584 102.943C131.233 103.095 130.867 103.167 130.507 103.167C129.468 103.167 128.478 102.567 128.036 101.561L126.387 97.8124H89.6122L87.964 101.561C87.5216 102.567 86.5315 103.167 85.4925 103.167C85.1324 103.167 84.7664 103.095 84.4153 102.943C83.0511 102.351 82.4281 100.773 83.024 99.4177L83.73 97.812H68.3662C67.9378 97.812 67.6904 98.0406 67.5811 98.177C67.4634 98.3237 67.3387 98.5661 67.4129 98.8879L76.8747 139.937C76.9696 140.348 77.3707 140.646 77.8283 140.646Z" fill="#D3222A"></path><path d="M124.172 109.412C125.66 109.412 126.867 110.611 126.867 112.089V131.721C126.867 133.2 125.66 134.398 124.172 134.398C122.683 134.398 121.476 133.2 121.476 131.721V112.089C121.476 110.611 122.683 109.412 124.172 109.412Z" fill="#D3222A"></path><path d="M108 109.412C109.488 109.412 110.695 110.611 110.695 112.089V131.721C110.695 133.2 109.488 134.398 108 134.398C106.511 134.398 105.305 133.2 105.305 131.721V112.089C105.305 110.611 106.511 109.412 108 109.412Z" fill="#D3222A"></path><path d="M91.828 109.412C93.3165 109.412 94.5233 110.611 94.5233 112.089V131.721C94.5233 133.2 93.3165 134.398 91.828 134.398C90.3394 134.398 89.1327 133.2 89.1327 131.721V112.089C89.1328 110.611 90.3394 109.412 91.828 109.412Z" fill="#D3222A"></path></svg> 