<?xml version="1.0" encoding="UTF-8"?> <svg xmlns="http://www.w3.org/2000/svg" width="418" height="309" viewBox="0 0 418 309" fill="none"><path d="M81.6995 121.263C-3.95293 131.546 -17.7518 197.132 19.4128 228.081C243.437 414.644 378.677 230.149 412.401 156.755C446.125 83.3605 317.767 11.3447 286.796 66.4764C255.825 121.608 207.992 106.102 81.6995 121.263Z" fill="#D3222A" fill-opacity="0.1"></path><path d="M175.205 102.981L167.317 90.8278C169.899 87.448 170.245 82.6945 167.812 78.9237L119.673 4.72544C116.555 -0.0765497 110.139 -1.44607 105.337 1.67228L97.7313 6.61087C92.9293 9.72506 91.5514 16.142 94.6698 20.9517L142.792 95.1464C145.242 98.909 149.721 100.524 153.862 99.5497L161.742 111.695C127.46 138.665 118.784 187.803 142.982 225.105C168.623 264.632 221.462 275.895 260.989 250.25C300.523 224.614 311.778 171.778 286.141 132.244C261.987 95.0376 213.761 82.8838 175.205 102.981ZM106.646 10.7888C110.13 8.5289 114.783 9.51565 117.035 12.9925C119.286 16.4728 118.296 21.1174 114.815 23.378C111.351 25.6295 106.698 24.6386 104.446 21.1583C102.182 17.6932 103.173 13.0403 106.646 10.7888Z" fill="#171717"></path><circle cx="215.445" cy="178" r="71" stroke="#D3222A" stroke-width="2"></circle><path d="M318.483 44.5373C322.055 42.6632 324.897 41.8419 327.491 41.9342C330.487 42.0405 333.127 42.6853 336.201 44.0632C338.545 44.4159 341.603 48.4028 342.84 50.3521C343.759 52.2976 343.798 52.812 343.263 55.9141C343.108 59.3786 341.511 66.285 336.365 66.1939C334.341 66.8277 333.752 66.7812 325.868 65.3662C318.196 63.9896 317.383 63.9201 315.877 64.5125C314.975 64.8672 313.857 65.5719 313.392 66.0782L312.547 66.999L314.331 66.2982C315.66 65.7763 316.833 65.7166 318.921 66.0639C322.389 66.6404 327.022 67.9581 326.957 68.3497C326.93 68.51 325.353 68.3821 323.451 68.0659C321.308 67.7096 319.509 67.6579 318.72 67.9304C317.454 68.3673 316.775 69.317 317.893 69.0864C318.216 69.0203 318.865 69.1897 319.337 69.4632C320.167 69.9434 320.158 70.0686 319.099 73.1483C318.496 74.9016 317.471 78.7259 316.823 81.6463C315.381 88.1365 313.561 93.8271 312.257 95.9273L311.28 97.4989L309.735 96.4807C303.035 92.0678 302.187 91.6817 296.776 90.5876C293.886 90.0033 290.035 89.4659 288.22 89.3935C285.098 89.2691 284.909 89.2087 284.729 88.2762C284.624 87.734 284.749 86.6356 285.006 85.8355C285.4 84.6112 285.801 84.2989 287.541 83.8637C289.419 83.3938 290.511 83.3591 295.446 83.6113C296.31 83.6554 299.003 84.0017 301.43 84.3804C304.983 84.9349 305.689 84.9408 305.054 84.4103C303.951 83.4887 293.438 81.4485 290.171 81.5225C288.692 81.5559 287.411 81.4824 287.324 81.3592C287.237 81.2365 287.481 80.503 287.866 79.7301C289.646 76.154 290.644 68.2506 289.916 63.4937C289.568 61.2179 288.68 60.2076 286.916 60.0805C286.473 60.0486 286.065 59.7569 286.009 59.4319C285.936 59.003 286.611 58.9593 288.477 59.2715C291.526 59.7811 294.005 60.8724 295.473 62.3506C296.755 63.642 297.012 63.0663 295.833 61.5429C293.814 58.9346 290.741 57.5697 282.87 55.7875C276.105 54.2559 273.712 52.6348 272.848 48.9995C271.676 44.0645 275.698 38.618 281.203 37.6861C286.173 36.8441 291.096 38.6653 298.992 44.2653C301.468 46.0214 304.322 47.8361 305.334 48.2975C307.689 49.3717 311.624 50.0297 312.751 49.538C313.565 49.1828 313.563 49.1661 312.731 49.2888C311.622 49.4526 308.102 48.3369 308.183 47.8471C308.216 47.6489 308.911 47.4529 309.727 47.411C311.809 47.3048 315.542 46.0796 318.483 44.5373Z" fill="#DA3E3E"></path></svg> 