<svg width="22" height="22" viewBox="0 0 22 22" fill="none" xmlns="http://www.w3.org/2000/svg">
<g clip-path="url(#clip0)">
<path d="M0.326603 7.95158C0.617115 7.58712 1.05295 7.37804 1.52242 7.37804H5.75931L8.05681 2.11724C8.19925 1.79107 8.57918 1.64201 8.9054 1.78454C9.23162 1.92698 9.38059 2.30695 9.23811 2.63317L7.16594 7.37808H14.8341L12.7619 2.63317C12.6194 2.30695 12.7684 1.92702 13.0946 1.78454C13.4208 1.64201 13.8007 1.79098 13.9432 2.11724L16.2407 7.37808H20.4776C20.947 7.37808 21.3829 7.58712 21.6734 7.95163C21.9586 8.30947 22.0638 8.76949 21.9621 9.21388L19.6995 19.0967C19.5415 19.7868 18.931 20.2687 18.215 20.2687H3.78503C3.06895 20.2687 2.4585 19.7868 2.3005 19.0967L0.0378952 9.21383C-0.0638123 8.76945 0.04142 8.30943 0.326603 7.95158ZM3.78503 18.9796H18.215C18.3244 18.9796 18.4203 18.9078 18.4429 18.8089L20.7055 8.9262C20.7233 8.84864 20.6935 8.79029 20.6653 8.75501C20.6392 8.72219 20.58 8.66714 20.4776 8.66714H16.8036L16.9724 9.05373C17.1149 9.37995 16.966 9.75988 16.6397 9.90236C16.5558 9.93906 16.4683 9.95642 16.3821 9.95642C16.1337 9.95642 15.8969 9.81192 15.7911 9.5697L15.397 8.66723H6.60292L6.20877 9.5697C6.10298 9.81196 5.86622 9.95642 5.61777 9.95642C5.53167 9.95642 5.44414 9.93906 5.36018 9.90236C5.03396 9.75992 4.88498 9.37995 5.02747 9.05373L5.19629 8.66714H1.52234C1.4199 8.66714 1.36073 8.72219 1.33461 8.75501C1.30646 8.79033 1.27664 8.84869 1.29439 8.92616L3.55699 18.809C3.57968 18.9078 3.67559 18.9796 3.78503 18.9796Z" fill="black"/>
<path d="M14.8672 11.4609C15.2231 11.4609 15.5117 11.7495 15.5117 12.1055V16.832C15.5117 17.188 15.2231 17.4766 14.8672 17.4766C14.5112 17.4766 14.2227 17.188 14.2227 16.832V12.1055C14.2227 11.7495 14.5112 11.4609 14.8672 11.4609Z" fill="black"/>
<path d="M11 11.4609C11.356 11.4609 11.6445 11.7495 11.6445 12.1055V16.832C11.6445 17.188 11.356 17.4766 11 17.4766C10.644 17.4766 10.3555 17.188 10.3555 16.832V12.1055C10.3555 11.7495 10.644 11.4609 11 11.4609Z" fill="black"/>
<path d="M7.13281 11.4609C7.48877 11.4609 7.77734 11.7495 7.77734 12.1055V16.832C7.77734 17.188 7.48877 17.4766 7.13281 17.4766C6.77686 17.4766 6.48828 17.188 6.48828 16.832V12.1055C6.48832 11.7495 6.77686 11.4609 7.13281 11.4609Z" fill="black"/>
</g>
<defs>
<clipPath id="clip0">
<rect width="22" height="22" fill="white" transform="matrix(-1 0 0 1 22 0)"/>
</clipPath>
</defs>
</svg>
