<svg width="31" height="31" viewBox="0 0 31 31" fill="none" xmlns="http://www.w3.org/2000/svg">
<path d="M15.5672 1.83691C19.0989 1.83691 21.959 4.69701 21.959 8.22868C21.959 11.7603 19.0989 14.6204 15.5672 14.6204C12.0356 14.6204 9.17545 11.7603 9.17545 8.22868C9.17545 4.69701 12.0356 1.83691 15.5672 1.83691ZM15.5674 29.404H15.5673H15.5671H15.567L15.5655 29.404L15.5585 29.4039L15.5288 29.4039C15.5023 29.4037 15.4622 29.4035 15.4095 29.4031C15.3042 29.4022 15.1486 29.4005 14.9498 29.3969C14.5523 29.3898 13.9828 29.3756 13.2989 29.3471C11.9286 29.29 10.1103 29.1761 8.29949 28.9497C6.4736 28.7215 4.71898 28.3863 3.44474 27.9084C2.80443 27.6683 2.35292 27.4165 2.07743 27.1754C1.81479 26.9456 1.78369 26.7947 1.78369 26.7081C1.78369 25.0117 3.21703 22.9638 5.87249 21.2679C8.46754 19.6105 11.9778 18.4684 15.5672 18.4684C19.1566 18.4684 22.6669 19.6105 25.2619 21.2679C27.9174 22.9638 29.3507 25.0117 29.3507 26.7081C29.3507 26.7947 29.3196 26.9456 29.057 27.1754C28.7815 27.4165 28.33 27.6683 27.6897 27.9084C26.4155 28.3863 24.6608 28.7215 22.8349 28.9497C21.0241 29.1761 19.2058 29.29 17.8355 29.3471C17.1516 29.3756 16.5822 29.3898 16.1846 29.3969C15.9859 29.4005 15.8302 29.4022 15.7249 29.4031C15.6722 29.4035 15.6322 29.4037 15.6056 29.4039L15.5759 29.4039L15.5689 29.404L15.5674 29.404Z" stroke="black" stroke-width="2"/>
</svg>
