<?xml version="1.0" encoding="UTF-8"?> <svg xmlns="http://www.w3.org/2000/svg" width="29" height="29" viewBox="0 0 29 29" fill="none"><path d="M17.5215 27V28H17.2559V27V17.8789V16.8789H16.2559H13.707C13.6334 16.8789 13.5742 16.8197 13.5742 16.7461C13.5742 16.6725 13.6334 16.6133 13.707 16.6133H16.2559H17.2559V15.6133V12.498C17.2559 10.5519 18.841 8.9668 20.7871 8.9668H21.3535C21.4271 8.9668 21.4863 9.02602 21.4863 9.09961C21.4863 9.1732 21.4271 9.23242 21.3535 9.23242H20.7871C18.9853 9.23242 17.5215 10.6963 17.5215 12.498V15.6133V16.6133H18.5215H21.0703C21.1439 16.6133 21.2031 16.6725 21.2031 16.7461C21.2031 16.8197 21.1439 16.8789 21.0703 16.8789H18.5215H17.5215V17.8789V27Z" stroke="#DA3E3E" stroke-width="2"></path></svg> 