<?xml version="1.0" encoding="UTF-8"?> <svg xmlns="http://www.w3.org/2000/svg" width="128" height="30" viewBox="0 0 128 30" fill="none"><path fill-rule="evenodd" clip-rule="evenodd" d="M41.129 0.0953122C39.8231 0.265 38.469 0.912524 36.8371 2.14764C35.4939 3.16416 33.7276 4.08792 32.6945 4.31432C32.2897 4.40318 31.9582 4.55909 31.9582 4.66104C31.9582 4.91293 33.8126 5.17837 34.3543 5.00409C34.7605 4.87344 34.7626 4.8817 34.3849 5.12717C33.8618 5.467 31.8377 5.46517 30.5699 5.12349C30.025 4.97677 28.4459 4.30605 27.0605 3.63327C22.6431 1.48772 20.0275 0.986001 17.6106 1.82089C14.9329 2.74534 13.3736 5.80569 14.3709 8.17788C15.1056 9.92527 16.4382 10.5374 19.9507 10.7411C24.038 10.9781 25.6899 11.4054 26.9173 12.5427C27.6342 13.207 27.5533 13.5165 26.8041 12.9769C25.9468 12.3592 24.6153 12.0194 23.0471 12.018C22.0872 12.0171 21.7528 12.0952 21.8253 12.3037C21.8803 12.4616 22.1087 12.5737 22.3332 12.5528C23.2263 12.4697 23.7548 12.9014 24.1182 14.0113C24.8783 16.3314 25.0365 20.3697 24.4433 22.3074C24.3151 22.7263 24.2539 23.1136 24.3076 23.1678C24.3613 23.2222 25.0086 23.1524 25.7463 23.0126C27.375 22.7038 32.8058 22.85 33.4345 23.2195C33.7965 23.4321 33.4426 23.4879 31.6184 23.506C30.3723 23.5184 28.996 23.5692 28.5599 23.619C26.0689 23.9035 25.5256 24.0117 24.6246 24.4032C23.79 24.7657 23.6153 24.9554 23.5201 25.6009C23.458 26.0227 23.487 26.5827 23.5845 26.8454C23.7521 27.297 23.852 27.3115 25.4246 27.114C26.3389 26.9992 28.3107 26.9478 29.8059 26.9997C32.6046 27.097 33.0613 27.2197 36.7814 28.8706L37.6396 29.2516L37.9976 28.3838C38.4756 27.2243 38.9126 24.225 39.0943 20.8569C39.1759 19.3415 39.3703 17.3424 39.5264 16.4147C39.8003 14.7854 39.7939 14.722 39.339 14.5507C39.08 14.4531 38.7409 14.4223 38.585 14.4823C38.0442 14.6908 38.3052 14.159 38.9024 13.835C39.2749 13.6329 40.1791 13.5092 41.2813 13.5092C42.2593 13.5092 43.0595 13.4419 43.0595 13.3594C43.0595 13.1581 40.6313 12.8841 38.8478 12.8841C37.7737 12.8841 37.1919 13.0116 36.5702 13.3833L35.7356 13.8825L36.0818 13.3514C36.2723 13.0593 36.7732 12.6136 37.1951 12.3611C37.8997 11.9393 38.3122 11.9064 42.2666 11.9569C46.3299 12.0091 46.6282 11.9833 47.5886 11.4977C49.3562 10.6043 50.1657 8.82104 50.1849 5.77928C50.1949 4.18229 50.1326 3.9281 49.5105 3.03098C48.6106 1.73341 47.3389 0.875325 45.6649 0.436066C44.0117 0.00231662 42.6372 -0.100782 41.129 0.0953122ZM4.35026 4.7623C2.77183 5.16712 2.00743 5.92968 2.00743 7.09982C2.00743 9.49336 6.0227 10.6858 9.25362 9.2518C11.1895 8.39234 11.2997 5.95632 9.44393 5.03785C8.32587 4.4847 5.93751 4.35542 4.35026 4.7623ZM55.3584 8.89291C52.2396 9.92206 49.8897 12.6798 49.1491 16.1792C48.7819 17.9146 49.015 21.2583 49.6143 22.8528C50.6942 25.726 53.3051 28.2194 55.8346 28.793C57.6921 29.2144 60.5767 28.9696 62.1306 28.2589C63.5402 27.6141 65.079 26.2922 66.4356 24.5609C67.3922 23.3403 67.3758 23.2211 66.1332 22.3242L65.4913 21.8611L64.2047 23.2695C62.5681 25.0613 61.0644 25.8647 59.3426 25.8679C56.0707 25.8739 53.8298 22.7067 53.8339 18.0815C53.8355 16.187 53.9045 15.8533 54.5833 14.4559C56.6441 10.2132 60.895 10.5028 63.5905 15.0696C64.0532 15.8531 64.4483 16.5197 64.4684 16.5509C64.4888 16.5821 64.9873 16.4414 65.5759 16.2379C66.8117 15.8113 66.8058 16.2767 65.6341 11.7342L64.9075 8.91679L64.0801 8.84652C63.4408 8.7921 63.1977 8.88028 63.0103 9.23481C62.769 9.69198 62.7638 9.69198 61.6929 9.20335C60.3379 8.58522 56.8138 8.41255 55.3584 8.89291ZM69.1135 10.0649C69.1135 11.2676 69.1412 11.3278 69.6949 11.3278C70.0146 11.3278 70.4733 11.4348 70.7144 11.5654C71.1328 11.7925 71.1525 12.1174 71.1525 18.7904C71.1525 25.4633 71.1328 25.7882 70.7144 26.0153C70.4733 26.146 70.0146 26.253 69.6949 26.253C69.1412 26.253 69.1135 26.3131 69.1135 27.5159V28.7788H73.4181H77.7227V27.5159V26.253H76.9751C75.7757 26.253 75.6837 26.0043 75.6837 22.7628V19.8237H79.082H82.4804V22.8007C82.4804 26.1017 82.4111 26.253 80.8974 26.253H80.191L80.2597 27.4585L80.3281 28.664L84.6893 28.7264L89.0505 28.7886V27.5209C89.0505 26.3129 89.0231 26.253 88.4692 26.253C88.1495 26.253 87.6907 26.146 87.4497 26.0153C87.0312 25.7882 87.0115 25.4633 87.0115 18.7904C87.0115 12.1174 87.0312 11.7925 87.4497 11.5654C87.6907 11.4348 88.1495 11.3278 88.4692 11.3278C89.0231 11.3278 89.0505 11.2678 89.0505 10.0598V8.7921L84.6893 8.85433L80.3281 8.91679L80.2597 10.1223L80.191 11.3278H80.8974C82.3734 11.3278 82.4804 11.5298 82.4804 14.3209V16.8386H79.082H75.6837V14.3209C75.6837 11.5728 75.8031 11.3278 77.1413 11.3278C77.695 11.3278 77.7227 11.2676 77.7227 10.0649V8.80198H73.4181H69.1135V10.0649ZM91.3161 10.0649V11.3278H92.0929C93.5873 11.3278 93.5817 11.2998 93.5817 18.7711C93.5817 24.9914 93.5508 25.5212 93.1673 25.873C92.9394 26.0819 92.4296 26.253 92.0345 26.253H91.3161V27.5189V28.7847L99.2691 28.7244L107.222 28.664L108.327 25.2197C108.935 23.3253 109.435 21.6953 109.437 21.5975C109.44 21.4269 108.993 21.2135 107.921 20.8753C107.492 20.7398 107.342 20.8762 106.858 21.8452C106.086 23.3889 105.275 24.3138 104.064 25.0335C103.186 25.5549 102.71 25.6569 100.74 25.7457C98.874 25.8298 98.3867 25.7839 98.1558 25.5019C97.9542 25.2557 97.8901 24.3623 97.9354 22.4317L97.9995 19.7088L99.1905 19.7187C100.655 19.7309 101.067 20.0962 101.226 21.5221L101.343 22.5791H102.334H103.324V18.4459V14.3128H102.334H101.343L101.224 15.3895C101.074 16.7362 100.65 17.0682 99.0816 17.0682H97.8713L97.9354 14.485L97.9995 11.9018L99.9817 11.8355C101.072 11.799 102.377 11.8821 102.883 12.0201C104.021 12.3308 105.353 13.5222 106.05 14.8538L106.577 15.8621L107.386 15.5254C107.831 15.3401 108.281 15.105 108.388 15.003C108.494 14.9009 108.14 13.4637 107.601 11.8095L106.622 8.80198H98.9689H91.3161V10.0649ZM111.027 10.0649C111.027 11.2959 111.043 11.3278 111.663 11.3278C112.013 11.3278 112.497 11.4745 112.739 11.6536C113.157 11.9636 113.179 12.3135 113.179 18.7904C113.179 25.2672 113.157 25.6172 112.739 25.9271C112.497 26.1062 112.013 26.253 111.663 26.253C111.043 26.253 111.027 26.2849 111.027 27.5159V28.7788H115.444H119.862V27.5159V26.253H119.113C117.639 26.253 117.483 25.9306 117.483 22.8849V20.1681L118.568 20.183C119.96 20.2023 120.548 20.7589 120.71 22.2089L120.827 23.2679H121.817H122.807V18.9052V14.5424H121.696C120.708 14.5424 120.597 14.592 120.699 14.9865C120.762 15.2308 120.697 15.7883 120.555 16.2258C120.256 17.1429 119.419 17.6003 118.247 17.4866L117.483 17.4127V14.6572V11.9018L119.936 11.9372C122.211 11.97 122.467 12.0205 123.448 12.6327C124.165 13.0793 124.753 13.7135 125.268 14.5946L126.029 15.8963L126.967 15.5264C127.483 15.3231 127.946 15.1234 127.996 15.0827C128.046 15.0421 127.645 13.6125 127.105 11.9055L126.123 8.80198H118.575H111.027V10.0649ZM0.91996 14.6683C0.91996 16.9791 0.941936 17.0921 1.36446 16.9562C1.60892 16.8774 2.01672 16.9259 2.27069 17.0636C2.69866 17.2956 2.73241 17.5307 2.73241 20.2721C2.73241 21.8992 2.67056 23.3938 2.59489 23.5935C2.50699 23.8261 2.18075 23.9568 1.68867 23.9568H0.91996V26.3678V28.7788H6.58388H12.2478V26.3678V23.9568H11.572H10.8962L10.8357 18.1589L10.7752 12.3611L5.84757 12.2991L0.91996 12.2373V14.6683Z" fill="white"></path><path d="M36.7658 2.14764C38.3977 0.912524 39.7518 0.265 41.0577 0.0953122C42.5659 -0.100782 43.9404 0.0023166 45.5936 0.436066C46.7961 0.417529 48.6583 2.15829 49.4391 3.03098C50.0613 3.9281 50.1236 4.18229 50.1136 5.77928C50.3243 7.52601 50.1001 11.1151 47.5173 11.4977C46.5569 11.9833 46.2585 12.0091 42.1952 11.9569C38.2409 11.9064 37.8283 11.9393 37.1238 12.3611C36.7019 12.6136 36.201 13.0593 36.0105 13.3514L35.6643 13.8825L36.4989 13.3833C37.1206 13.0116 37.7024 12.8841 38.7765 12.8841C40.5599 12.8841 42.9882 13.1581 42.9882 13.3594C42.9882 13.4419 42.188 13.5092 41.2099 13.5092C40.1077 13.5092 39.2035 13.6329 38.8311 13.835C38.2339 14.159 37.9729 14.6908 38.5137 14.4823C38.6695 14.4223 39.0087 14.4531 39.2677 14.5507C39.7226 14.722 39.7289 14.7854 39.455 16.4147C39.2989 17.3424 39.1045 19.3415 39.023 20.8569C38.8413 24.225 38.4042 27.2243 37.9262 28.3838L37.5683 29.2516L36.7101 28.8706C32.99 27.2197 32.5333 27.097 29.7346 26.9997C28.2393 26.9478 26.2676 26.9992 25.3532 27.114C23.7807 27.3115 23.6808 27.297 23.5131 26.8454C23.4157 26.5827 23.3867 26.0227 23.4488 25.6009C23.5439 24.9554 23.7186 24.7657 24.5533 24.4032C25.4543 24.0117 25.9976 23.9035 28.4885 23.619C28.9247 23.5692 30.301 23.5184 31.5471 23.506C33.3713 23.4879 33.7252 23.4321 33.3631 23.2195C32.7344 22.85 27.3036 22.7038 25.6749 23.0126C24.9373 23.1524 24.29 23.2222 24.2363 23.1678C24.1826 23.1136 24.2438 22.7263 24.372 22.3074C24.9651 20.3697 24.807 16.3314 24.0469 14.0113C23.6835 12.9014 23.1549 12.4697 22.2619 12.5528C22.0373 12.5737 21.809 12.4616 21.7539 12.3037C21.6814 12.0952 22.0158 12.0171 22.9757 12.018C24.544 12.0194 25.8754 12.3592 26.7327 12.9769C27.482 13.5165 27.5628 13.207 26.846 12.5427C25.6185 11.4054 23.9667 10.9781 19.8794 10.7411C16.3669 10.5374 15.0342 9.92527 14.2995 8.17788C13.3022 5.80569 14.8616 2.74534 17.5393 1.82089C19.9562 0.986001 22.5718 1.48772 26.9892 3.63327C28.3746 4.30605 29.9537 4.97677 30.4986 5.12349C31.7664 5.46517 33.7904 5.467 34.3135 5.12717C34.6912 4.8817 34.6892 4.87344 34.283 5.00409C33.7413 5.17837 31.8869 4.91293 31.8869 4.66104C31.8869 4.55909 32.2183 4.40318 32.6232 4.31432C33.6563 4.08792 35.4225 3.16416 36.7658 2.14764Z" fill="#DA3E3E"></path></svg> 