<?xml version="1.0" encoding="UTF-8"?> <svg xmlns="http://www.w3.org/2000/svg" width="91" height="82" viewBox="0 0 91 82" fill="none"><path d="M85.6902 0.570312H5.3098C2.38181 0.570312 0 2.9263 0 5.82177V55.0847C0 57.98 2.38181 60.3358 5.3098 60.3358H42.7381C44.3247 66.9751 47.9127 71.6772 51.0484 74.6898C55.6254 79.0874 60.8721 81.4294 62.8999 81.4294C64.9275 81.4294 70.1742 79.0876 74.7514 74.6899C77.8871 71.6772 81.4752 66.9751 83.0617 60.336H85.6902C88.618 60.336 91 57.9802 91 55.0849V5.82177C91 2.9263 88.618 0.570312 85.6902 0.570312ZM80.3358 53.132C80.336 62.3935 76.0133 68.5369 72.3868 72.0597C68.0851 76.2386 63.6725 77.864 62.8999 77.9134C62.1271 77.864 57.7143 76.2387 53.4126 72.0597C49.7865 68.5369 45.4638 62.3935 45.4638 53.132V44.4755C51.5832 42.7252 57.3091 40.3298 62.9004 37.182C68.3658 40.2499 74.3483 42.7518 80.3358 44.4744V53.132ZM87.4453 55.0847C87.4453 56.0417 86.6578 56.8202 85.6902 56.8202H83.6798C83.816 55.6423 83.8906 54.4139 83.8906 53.132V43.1427C83.8906 42.3492 83.3532 41.6544 82.5791 41.4464C76.1251 39.713 69.6305 37.012 63.7976 33.6354C63.2431 33.3144 62.5567 33.3148 62.0018 33.6358C56.0036 37.1081 49.8603 39.6628 43.2206 41.4464C42.4466 41.6545 41.9092 42.3494 41.9092 43.1427V53.132C41.9092 54.4139 41.9836 55.6423 42.1199 56.8202H5.3098C4.34204 56.8202 3.55468 56.0415 3.55468 55.0847V25.1793H87.4453V55.0847ZM87.4453 21.6638H3.55468V14.633H87.4453V21.6638ZM87.4453 11.1172H3.55468V5.82177C3.55468 4.86464 4.34204 4.08593 5.3098 4.08593H85.6902C86.6578 4.08593 87.4453 4.86464 87.4453 5.82177V11.1172Z" fill="#D3222A"></path></svg> 