<?xml version="1.0" encoding="UTF-8"?> <svg xmlns="http://www.w3.org/2000/svg" width="84" height="90" viewBox="0 0 84 90" fill="none"><path d="M74.9568 37.6163H74.7314V32.0978C74.7314 14.3707 60.3573 0 42.6255 0C24.8936 0 10.5195 14.3707 10.5195 32.0978V37.6163H9.16775C4.21099 37.6163 0.380858 42.0085 0.380858 47.0768V61.1547C0.256012 66.0669 4.1381 70.1502 9.05153 70.275C9.09034 70.2761 9.12893 70.2767 9.16775 70.2771H17.504C18.6847 70.2217 19.597 69.2196 19.5414 68.0391C19.5395 67.9966 19.5362 67.9542 19.5317 67.9119V40.3191C19.5317 38.9677 18.7432 37.6161 17.504 37.6161H15.0256V32.0975C15.0256 16.8586 27.3826 4.50474 42.6255 4.50474C57.8683 4.50474 70.2253 16.8586 70.2253 32.0975V37.6161H67.7469C66.5077 37.6161 65.7192 38.9675 65.7192 40.3191V67.9119C65.5935 69.087 66.4444 70.1415 67.6197 70.2672C67.662 70.2718 67.7045 70.275 67.7469 70.2769H70.3379L70.1125 70.6147C66.7322 75.1061 61.4279 77.7367 55.8057 77.71C54.5749 71.6764 48.6845 67.7826 42.6494 69.0133C37.4884 70.0655 33.7674 74.5842 33.7258 79.8499C33.7875 86.0259 38.8132 91 44.9911 90.9995C48.0493 90.95 50.9643 89.6954 53.102 87.5082C54.5443 86.0316 55.4894 84.1417 55.8057 82.1022C62.8462 82.1289 69.4859 78.8307 73.7173 73.205L75.8578 70.0514C80.7018 69.7136 83.7434 66.6728 83.7434 62.2804V48.2025C83.7436 43.3601 80.1388 37.6163 74.9568 37.6163ZM15.0256 65.7722H9.16775C6.74198 65.7131 4.82336 63.6995 4.88244 61.2743C4.88352 61.2345 4.88503 61.1946 4.88697 61.1545V47.0766C4.88697 44.4863 6.68937 42.1211 9.16775 42.1211H15.0256V65.7722ZM49.8353 84.3551C48.5868 85.7084 46.8327 86.4834 44.9913 86.495C41.3261 86.4368 38.3518 83.5128 38.2321 79.8501C38.2306 76.1803 41.2051 73.2041 44.8759 73.2026C48.5467 73.2011 51.5236 76.1749 51.5251 79.8447C51.5251 79.8465 51.5251 79.8484 51.5251 79.8501C51.6189 81.5223 51.0057 83.1569 49.8353 84.3551ZM79.2375 62.2808C79.2375 65.3216 76.3085 65.7722 74.9568 65.7722H70.2253V42.1213H74.9568C77.4351 42.1213 79.2375 45.6126 79.2375 48.2029V62.2808Z" fill="#D3222A"></path></svg> 