<?xml version="1.0" encoding="UTF-8"?> <svg xmlns="http://www.w3.org/2000/svg" width="98" height="70" viewBox="0 0 98 70" fill="none"><path d="M92.8844 0.748047H26.3501C25.5611 0.748047 24.9214 1.37598 24.9214 2.15093C24.9214 2.92588 25.5611 3.5538 26.3501 3.5538H92.8844C93.8721 3.5538 94.6756 4.34297 94.6756 5.31264V10.7231C94.6756 11.498 95.3153 12.126 96.1044 12.126C96.8934 12.126 97.5331 11.498 97.5331 10.7231V5.31264C97.5331 2.79569 95.4477 0.748047 92.8844 0.748047Z" fill="#D3222A"></path><path d="M96.1044 15.7781C95.3153 15.7781 94.6757 16.4061 94.6757 17.181V64.4569C94.6757 65.4268 93.8721 66.2158 92.8844 66.2158H4.64863C3.66092 66.2158 2.85741 65.4266 2.85741 64.4569V5.31264C2.85741 4.34279 3.66092 3.55381 4.64863 3.55381H19.7651C20.5541 3.55381 21.1938 2.92588 21.1938 2.15093C21.1938 1.37598 20.5541 0.748047 19.7651 0.748047H4.64863C2.08534 0.748047 0 2.79569 0 5.31264V64.4567C0 66.9739 2.08534 69.0215 4.64863 69.0215H92.8842C95.4475 69.0215 97.5329 66.9739 97.5329 64.4569V17.181C97.5331 16.4061 96.8934 15.7781 96.1044 15.7781Z" fill="#D3222A"></path><path d="M29.3151 62.4749H80.5845C81.3736 62.4749 82.0133 61.8469 82.0133 61.072C82.0133 57.0524 85.3435 53.7822 89.4372 53.7822C90.2262 53.7822 90.8659 53.1543 90.8659 52.3794V17.3904C90.8659 16.6155 90.2262 15.9875 89.4372 15.9875C85.3437 15.9875 82.0133 12.7175 82.0133 8.6978C82.0133 7.92285 81.3736 7.29492 80.5845 7.29492H16.9486C16.1596 7.29492 15.5199 7.92285 15.5199 8.6978C15.5199 12.7173 12.1897 15.9875 8.09594 15.9875C7.30692 15.9875 6.66724 16.6155 6.66724 17.3904V52.3796C6.66724 53.1545 7.30692 53.7824 8.09594 53.7824C12.1895 53.7824 15.5199 57.0525 15.5199 61.0722C15.5199 61.8471 16.1596 62.475 16.9486 62.475H22.753C23.542 62.475 24.1817 61.8471 24.1817 61.0722C24.1817 60.2972 23.542 59.6693 22.753 59.6693H18.2784C17.646 55.2229 14.0529 51.6948 9.52465 51.0739V18.696C14.0529 18.0752 17.646 14.5469 18.2784 10.1007H79.2547C79.8871 14.5471 83.4803 18.0752 88.0085 18.696V51.0737C83.4803 51.6946 79.8871 55.2229 79.2547 59.6691H29.3151C28.5261 59.6691 27.8864 60.297 27.8864 61.072C27.8864 61.8469 28.5261 62.4749 29.3151 62.4749Z" fill="#D3222A"></path><path d="M73.2939 20.6406H67.5791C66.7901 20.6406 66.1504 21.2686 66.1504 22.0435V33.8428C66.1184 33.8593 66.0864 33.8765 66.0546 33.8947C64.8834 34.5602 64.6523 35.8667 64.4838 36.8209C64.4182 37.191 64.3367 37.6521 64.2338 37.8266C64.1441 37.9791 63.777 38.2758 63.5088 38.4927C62.7358 39.1177 61.677 39.9736 61.677 41.3438C61.677 42.7139 62.7358 43.5698 63.509 44.1948C63.777 44.4114 64.1441 44.7082 64.234 44.8607C64.3369 45.0352 64.4182 45.4961 64.4838 45.8665C64.6525 46.8208 64.8836 48.1273 66.0548 48.7929C66.4839 49.0368 66.928 49.1266 67.3636 49.1264C68.0894 49.1264 68.7918 48.8768 69.3621 48.6741C69.7555 48.5344 70.2014 48.3757 70.4369 48.3757C70.6723 48.3757 71.1183 48.5344 71.5117 48.6741C72.4245 48.9982 73.6744 49.4425 74.819 48.7929C75.9902 48.1273 76.2213 46.8208 76.39 45.8666C76.4556 45.4963 76.5369 45.0352 76.6398 44.8607C76.7295 44.7084 77.0966 44.4116 77.3648 44.1948C78.138 43.5698 79.1968 42.7139 79.1968 41.3438C79.1968 39.9736 78.1378 39.1175 77.3648 38.4925C77.0968 38.2757 76.7297 37.9791 76.64 37.8266C76.5371 37.6521 76.4556 37.1912 76.39 36.8209C76.2215 35.8665 75.9904 34.56 74.819 33.8945C74.7872 33.8763 74.7552 33.8591 74.7232 33.8427V22.0435C74.7226 21.2686 74.083 20.6406 73.2939 20.6406ZM71.8652 23.4464V33.8892C71.7425 33.9308 71.6244 33.9728 71.5113 34.0131C71.1179 34.1528 70.672 34.3114 70.4365 34.3114C70.2013 34.3114 69.7553 34.1528 69.3619 34.0131C69.2488 33.9728 69.1305 33.9308 69.0078 33.8892V23.4464H71.8652ZM75.5481 40.6582C75.7862 40.8507 76.1641 41.1561 76.3051 41.3434C76.1641 41.5304 75.7862 41.8359 75.5481 42.0284C75.0636 42.42 74.5144 42.8641 74.166 43.4552C73.8083 44.0623 73.6839 44.7658 73.5742 45.3863C73.526 45.6596 73.4509 46.0834 73.3669 46.3092C73.1318 46.2658 72.7385 46.1261 72.4838 46.0354C71.8694 45.8171 71.1732 45.5696 70.4365 45.5696C69.6999 45.5696 69.0036 45.8171 68.3893 46.0354C68.1346 46.1259 67.7414 46.2656 67.5063 46.3092C67.4223 46.0834 67.3473 45.6596 67.2991 45.3861C67.1893 44.7657 67.065 44.0623 66.7072 43.4552C66.3588 42.8641 65.8098 42.42 65.3252 42.0284C65.087 41.8359 64.7093 41.5304 64.5681 41.3434C64.7091 41.1561 65.0869 40.8509 65.325 40.6584C65.8096 40.2665 66.3588 39.8227 66.707 39.2314C67.0648 38.6244 67.1892 37.9209 67.2989 37.3005C67.3473 37.027 67.4221 36.6031 67.5061 36.3776C67.7412 36.4208 68.1346 36.5607 68.3893 36.6512C69.0036 36.8695 69.6999 37.117 70.4363 37.117C71.173 37.117 71.8692 36.8695 72.4838 36.6512C72.7385 36.5607 73.1316 36.421 73.3667 36.3774C73.4507 36.6031 73.5256 37.027 73.574 37.3005C73.6837 37.9209 73.8081 38.6244 74.1658 39.2314C74.5144 39.8225 75.0636 40.2665 75.5481 40.6582Z" fill="#D3222A"></path><path d="M19.7654 23.6964H53.944C54.7331 23.6964 55.3727 23.0685 55.3727 22.2935C55.3727 21.5186 54.7331 20.8906 53.944 20.8906H19.7654C18.9763 20.8906 18.3367 21.5186 18.3367 22.2935C18.3367 23.0685 18.9763 23.6964 19.7654 23.6964Z" fill="#D3222A"></path><path d="M19.7654 31.9679H53.944C54.7331 31.9679 55.3727 31.3399 55.3727 30.565C55.3727 29.79 54.7331 29.1621 53.944 29.1621H19.7654C18.9763 29.1621 18.3367 29.79 18.3367 30.565C18.3367 31.3399 18.9763 31.9679 19.7654 31.9679Z" fill="#D3222A"></path><path d="M53.9439 37.6016H47.1914C46.4024 37.6016 45.7627 38.2295 45.7627 39.0044C45.7627 39.7794 46.4024 40.4073 47.1914 40.4073H53.9439C54.7329 40.4073 55.3726 39.7794 55.3726 39.0044C55.3726 38.2295 54.7329 37.6016 53.9439 37.6016Z" fill="#D3222A"></path><path d="M19.7654 40.4073H40.4677C41.2567 40.4073 41.8964 39.7794 41.8964 39.0044C41.8964 38.2295 41.2567 37.6016 40.4677 37.6016H19.7654C18.9763 37.6016 18.3367 38.2295 18.3367 39.0044C18.3367 39.7794 18.9763 40.4073 19.7654 40.4073Z" fill="#D3222A"></path><path d="M19.7654 48.8468H53.944C54.7331 48.8468 55.3727 48.2188 55.3727 47.4439C55.3727 46.6689 54.7331 46.041 53.944 46.041H19.7654C18.9763 46.041 18.3367 46.6689 18.3367 47.4439C18.3367 48.2188 18.9763 48.8468 19.7654 48.8468Z" fill="#D3222A"></path></svg> 