<?xml version="1.0" encoding="UTF-8"?> <svg xmlns="http://www.w3.org/2000/svg" width="90" height="64" viewBox="0 0 90 64" fill="none"><path d="M20.8212 46.1035C15.9 46.1035 11.8979 50.1056 11.8979 55.0268C11.8979 59.948 15.9 63.9501 20.8212 63.9501C25.7424 63.9501 29.7445 59.948 29.7445 55.0268C29.7445 50.1056 25.7423 46.1035 20.8212 46.1035ZM20.8212 60.9756C17.5404 60.9756 14.8724 58.3075 14.8724 55.0268C14.8724 51.7459 17.5405 49.078 20.8212 49.078C24.1019 49.078 26.77 51.7461 26.77 55.0268C26.77 58.3075 24.1019 60.9756 20.8212 60.9756Z" fill="#d3222a"></path><path d="M71.3862 46.1035C66.465 46.1035 62.4629 50.1056 62.4629 55.0268C62.4629 59.948 66.465 63.9501 71.3862 63.9501C76.3074 63.9501 80.3095 59.948 80.3095 55.0268C80.3095 50.1056 76.3074 46.1035 71.3862 46.1035ZM71.3862 60.9756C68.1053 60.9756 65.4374 58.3075 65.4374 55.0268C65.4374 51.7459 68.1055 49.078 71.3862 49.078C74.6671 49.078 77.335 51.7461 77.335 55.0268C77.335 58.3075 74.6671 60.9756 71.3862 60.9756Z" fill="#d3222a"></path><path d="M88.9963 37.865L75.6114 17.044C75.3377 16.6186 74.8663 16.3613 74.3605 16.3613H58.0013C57.1789 16.3613 56.5142 17.0276 56.5142 17.8485V55.0288C56.5142 55.8512 57.1789 56.5159 58.0013 56.5159H63.9501V53.5414H59.4885V19.3358H73.5485L86.2583 39.1068V53.5418H78.8222V56.5161H87.7454C88.5679 56.5161 89.2326 55.8514 89.2326 55.0289V38.6695C89.2328 38.3854 89.151 38.1043 88.9963 37.865Z" fill="#d3222a"></path><path d="M65.4372 35.6935V25.2831H77.335V22.3086H63.95C63.1276 22.3086 62.4629 22.9749 62.4629 23.7957V37.1807C62.4629 38.0031 63.1276 38.6678 63.95 38.6678H86.2582V35.6933H65.4372V35.6935Z" fill="#d3222a"></path><path d="M58.0013 5.94922H1.48715C0.666283 5.94922 0 6.6155 0 7.43637V55.0272C0 55.8497 0.666283 56.5144 1.48715 56.5144H13.3849V53.5399H2.97448V8.92353H56.5141V53.5399H28.257V56.5144H58.0013C58.8237 56.5144 59.4884 55.8497 59.4884 55.0272V7.43637C59.4884 6.6155 58.8237 5.94922 58.0013 5.94922Z" fill="#d3222a"></path><path d="M10.4106 47.5918H1.4873V50.5663H10.4106V47.5918Z" fill="#d3222a"></path><path d="M56.5136 47.5918H31.231V50.5663H56.5136V47.5918Z" fill="#d3222a"></path><path d="M87.7457 47.5918H81.7969V50.5663H87.7457V47.5918Z" fill="#d3222a"></path><path d="M58.0007 11.8965H5.94824V14.871H58.0007V11.8965Z" fill="#d3222a"></path><path d="M22.3085 53.5371H19.334V56.5116H22.3085V53.5371Z" fill="#d3222a"></path><path d="M72.8739 53.5371H69.8994V56.5116H72.8739V53.5371Z" fill="#d3222a"></path><path d="M26.7693 0H5.94824V2.97448H26.7693V0Z" fill="#d3222a"></path><path d="M2.97448 0H0V2.97448H2.97448V0Z" fill="#d3222a"></path></svg> 