<?xml version="1.0" encoding="UTF-8"?> <svg xmlns="http://www.w3.org/2000/svg" width="29" height="29" viewBox="0 0 29 29" fill="none"><path d="M14.4436 7.92001C18.0719 7.92001 21.024 10.8721 21.024 14.5004C21.024 18.128 18.0713 21.0807 14.4436 21.0807C10.8159 21.0807 7.86328 18.1286 7.86328 14.5004C7.86328 10.8721 10.8159 7.92001 14.4436 7.92001ZM14.4436 19.815C17.3746 19.815 19.7583 17.4314 19.7583 14.5004C19.7583 11.5694 17.3746 9.18572 14.4436 9.18572C11.5126 9.18572 9.12899 11.5694 9.12899 14.5004C9.12899 17.4314 11.5126 19.815 14.4436 19.815ZM21.1177 6.85358C21.1177 6.19115 21.6546 5.6543 22.317 5.6543C22.9794 5.6543 23.5163 6.19115 23.5163 6.85358C23.5163 7.51601 22.9794 8.05287 22.317 8.05287C21.6546 8.05287 21.1177 7.51601 21.1177 6.85358Z" fill="#DA3E3E" stroke="#DA3E3E"></path><rect x="1" y="1" width="27" height="27" rx="7" stroke="#DA3E3E" stroke-width="2"></rect></svg> 