<?xml version="1.0" encoding="UTF-8"?> <svg xmlns="http://www.w3.org/2000/svg" width="128" height="30" viewBox="0 0 128 30" fill="none"><path fill-rule="evenodd" clip-rule="evenodd" d="M3.4303 4.7623C1.85187 5.16712 1.08747 5.92968 1.08747 7.09982C1.08747 9.49336 5.10274 10.6858 8.33366 9.2518C10.2696 8.39234 10.3797 5.95632 8.52397 5.03785C7.40591 4.4847 5.01755 4.35542 3.4303 4.7623ZM54.4384 8.89291C51.3196 9.92206 48.9698 12.6798 48.2292 16.1792C47.8619 17.9146 48.0951 21.2583 48.6943 22.8528C49.7743 25.726 52.3851 28.2194 54.9146 28.793C56.7722 29.2144 59.6567 28.9696 61.2106 28.2589C62.6203 27.6141 64.159 26.2922 65.5157 24.5609C66.4722 23.3403 66.4559 23.2211 65.2132 22.3242L64.5714 21.8611L63.2848 23.2695C61.6481 25.0613 60.1445 25.8647 58.4226 25.8679C55.1507 25.8739 52.9098 22.7067 52.9139 18.0815C52.9155 16.187 52.9846 15.8533 53.6634 14.4559C55.7241 10.2132 59.975 10.5028 62.6706 15.0696C63.1332 15.8531 63.5283 16.5197 63.5485 16.5509C63.5689 16.5821 64.0673 16.4414 64.6559 16.2379C65.8918 15.8113 65.8859 16.2767 64.7141 11.7342L63.9875 8.91679L63.1602 8.84652C62.5208 8.7921 62.2777 8.88028 62.0904 9.23481C61.8491 9.69198 61.8439 9.69198 60.7729 9.20335C59.4179 8.58522 55.8938 8.41255 54.4384 8.89291ZM68.1936 10.0649C68.1936 11.2676 68.2212 11.3278 68.7749 11.3278C69.0946 11.3278 69.5534 11.4348 69.7944 11.5654C70.2129 11.7925 70.2326 12.1174 70.2326 18.7904C70.2326 25.4633 70.2129 25.7882 69.7944 26.0153C69.5534 26.146 69.0946 26.253 68.7749 26.253C68.2212 26.253 68.1936 26.3131 68.1936 27.5159V28.7788H72.4982H76.8027V27.5159V26.253H76.0551C74.8557 26.253 74.7637 26.0043 74.7637 22.7628V19.8237H78.1621H81.5604V22.8007C81.5604 26.1017 81.4911 26.253 79.9775 26.253H79.2711L79.3397 27.4585L79.4081 28.664L83.7693 28.7264L88.1306 28.7886V27.5209C88.1306 26.3129 88.1031 26.253 87.5492 26.253C87.2295 26.253 86.7708 26.146 86.5297 26.0153C86.1113 25.7882 86.0916 25.4633 86.0916 18.7904C86.0916 12.1174 86.1113 11.7925 86.5297 11.5654C86.7708 11.4348 87.2295 11.3278 87.5492 11.3278C88.1031 11.3278 88.1306 11.2678 88.1306 10.0598V8.7921L83.7693 8.85433L79.4081 8.91679L79.3397 10.1223L79.2711 11.3278H79.9775C81.4535 11.3278 81.5604 11.5298 81.5604 14.3209V16.8386H78.1621H74.7637V14.3209C74.7637 11.5728 74.8831 11.3278 76.2214 11.3278C76.7751 11.3278 76.8027 11.2676 76.8027 10.0649V8.80198H72.4982H68.1936V10.0649ZM90.3961 10.0649V11.3278H91.173C92.6674 11.3278 92.6617 11.2998 92.6617 18.7711C92.6617 24.9914 92.6309 25.5212 92.2473 25.873C92.0194 26.0819 91.5097 26.253 91.1145 26.253H90.3961V27.5189V28.7847L98.3492 28.7244L106.302 28.664L107.407 25.2197C108.015 23.3253 108.515 21.6953 108.517 21.5975C108.52 21.4269 108.073 21.2135 107.001 20.8753C106.572 20.7398 106.422 20.8762 105.938 21.8452C105.166 23.3889 104.355 24.3138 103.144 25.0335C102.266 25.5549 101.79 25.6569 99.8198 25.7457C97.9541 25.8298 97.4667 25.7839 97.2359 25.5019C97.0342 25.2557 96.9701 24.3623 97.0154 22.4317L97.0796 19.7088L98.2706 19.7187C99.735 19.7309 100.147 20.0962 100.306 21.5221L100.424 22.5791H101.414H102.404V18.4459V14.3128H101.414H100.424L100.304 15.3895C100.154 16.7362 99.7303 17.0682 98.1616 17.0682H96.9513L97.0154 14.485L97.0796 11.9018L99.0617 11.8355C100.152 11.799 101.457 11.8821 101.963 12.0201C103.101 12.3308 104.433 13.5222 105.13 14.8538L105.657 15.8621L106.466 15.5254C106.911 15.3401 107.361 15.105 107.468 15.003C107.574 14.9009 107.22 13.4637 106.681 11.8095L105.702 8.80198H98.049H90.3961V10.0649ZM110.107 10.0649C110.107 11.2959 110.123 11.3278 110.743 11.3278C111.093 11.3278 111.577 11.4745 111.819 11.6536C112.237 11.9636 112.259 12.3135 112.259 18.7904C112.259 25.2672 112.237 25.6172 111.819 25.9271C111.577 26.1062 111.093 26.253 110.743 26.253C110.123 26.253 110.107 26.2849 110.107 27.5159V28.7788H114.524H118.942V27.5159V26.253H118.193C116.719 26.253 116.563 25.9306 116.563 22.8849V20.1681L117.648 20.183C119.04 20.2023 119.628 20.7589 119.79 22.2089L119.907 23.2679H120.897H121.888V18.9052V14.5424H120.776C119.788 14.5424 119.677 14.592 119.779 14.9865C119.842 15.2308 119.777 15.7883 119.635 16.2258C119.336 17.1429 118.499 17.6003 117.327 17.4866L116.563 17.4127V14.6572V11.9018L119.016 11.9372C121.291 11.97 121.547 12.0205 122.528 12.6327C123.245 13.0793 123.833 13.7135 124.348 14.5946L125.109 15.8963L126.047 15.5264C126.563 15.3231 127.026 15.1234 127.076 15.0827C127.126 15.0421 126.725 13.6125 126.185 11.9055L125.203 8.80198H117.655H110.107V10.0649ZM0 14.6683C0 16.9791 0.021976 17.0921 0.444504 16.9562C0.688959 16.8774 1.09676 16.9259 1.35073 17.0636C1.7787 17.2956 1.81245 17.5307 1.81245 20.2721C1.81245 21.8992 1.7506 23.3938 1.67493 23.5935C1.58703 23.8261 1.26079 23.9568 0.768707 23.9568H0V26.3678V28.7788H5.66392H11.3278V26.3678V23.9568H10.652H9.9762L9.91571 18.1589L9.85522 12.3611L4.92761 12.2991L0 12.2373V14.6683Z" fill="#2D2D2D"></path><path d="M35.7697 2.14764C37.4016 0.912524 38.7557 0.265 40.0616 0.0953122C41.5698 -0.100782 42.9443 0.0023166 44.5975 0.436066C45.8 0.417529 47.6622 2.15829 48.4431 3.03098C49.0652 3.9281 49.1275 4.18229 49.1175 5.77928C49.3283 7.52601 49.104 11.1151 46.5212 11.4977C45.5608 11.9833 45.2624 12.0091 41.1991 11.9569C37.2448 11.9064 36.8323 11.9393 36.1277 12.3611C35.7058 12.6136 35.2049 13.0593 35.0144 13.3514L34.6682 13.8825L35.5028 13.3833C36.1245 13.0116 36.7063 12.8841 37.7804 12.8841C39.5638 12.8841 41.9921 13.1581 41.9921 13.3594C41.9921 13.4419 41.1919 13.5092 40.2138 13.5092C39.1116 13.5092 38.2074 13.6329 37.835 13.835C37.2378 14.159 36.9768 14.6908 37.5176 14.4823C37.6735 14.4223 38.0126 14.4531 38.2716 14.5507C38.7265 14.722 38.7328 14.7854 38.4589 16.4147C38.3028 17.3424 38.1084 19.3415 38.0269 20.8569C37.8452 24.225 37.4082 27.2243 36.9301 28.3838L36.5722 29.2516L35.714 28.8706C31.9939 27.2197 31.5372 27.097 28.7385 26.9997C27.2432 26.9478 25.2715 26.9992 24.3571 27.114C22.7846 27.3115 22.6847 27.297 22.517 26.8454C22.4196 26.5827 22.3906 26.0227 22.4527 25.6009C22.5478 24.9554 22.7225 24.7657 23.5572 24.4032C24.4582 24.0117 25.0015 23.9035 27.4924 23.619C27.9286 23.5692 29.3049 23.5184 30.551 23.506C32.3752 23.4879 32.7291 23.4321 32.367 23.2195C31.7383 22.85 26.3076 22.7038 24.6788 23.0126C23.9412 23.1524 23.2939 23.2222 23.2402 23.1678C23.1865 23.1136 23.2477 22.7263 23.3759 22.3074C23.969 20.3697 23.8109 16.3314 23.0508 14.0113C22.6874 12.9014 22.1588 12.4697 21.2658 12.5528C21.0412 12.5737 20.8129 12.4616 20.7578 12.3037C20.6853 12.0952 21.0197 12.0171 21.9796 12.018C23.5479 12.0194 24.8793 12.3592 25.7366 12.9769C26.4859 13.5165 26.5667 13.207 25.8499 12.5427C24.6224 11.4054 22.9706 10.9781 18.8833 10.7411C15.3708 10.5374 14.0382 9.92527 13.3034 8.17788C12.3061 5.80569 13.8655 2.74534 16.5432 1.82089C18.9601 0.986001 21.5757 1.48772 25.9931 3.63327C27.3785 4.30605 28.9576 4.97677 29.5025 5.12349C30.7703 5.46517 32.7943 5.467 33.3174 5.12717C33.6951 4.8817 33.6931 4.87344 33.2869 5.00409C32.7452 5.17837 30.8908 4.91293 30.8908 4.66104C30.8908 4.55909 31.2222 4.40318 31.6271 4.31432C32.6602 4.08792 34.4264 3.16416 35.7697 2.14764Z" fill="#DA3E3E"></path></svg> 